<svg width="120" height="120" viewBox="0 0 120 120" fill="none" xmlns="http://www.w3.org/2000/svg">
<path d="M109.829 36.7992C108.63 32.5406 105.107 29.1984 100.633 28.0664C92.5214 26 60 26 60 26C60 26 27.4786 26 19.3673 28.0664C14.8927 29.1984 11.3702 32.5406 10.1706 36.7992C8 44.5078 8 60.5719 8 60.5719C8 60.5719 8 76.6359 10.1706 84.3445C11.3702 88.6031 14.8927 91.8016 19.3673 92.9336C27.4786 95 60 95 60 95C60 95 92.5214 95 100.633 92.9336C105.107 91.8016 108.63 88.5852 109.829 84.3445C112 76.6359 112 60.5719 112 60.5719C112 60.5719 112 44.5078 109.829 36.7992ZM49.3753 75.1625V45.9812L76.5463 60.5719L49.3753 75.1625Z" fill="#71A984"/>
</svg>
